<svg xmlns="http://www.w3.org/2000/svg" xmlns:xlink="http://www.w3.org/1999/xlink" width="213" zoomAndPan="magnify" viewBox="0 0 159.75 44.249999" height="59" preserveAspectRatio="xMidYMid meet" version="1.0"><defs><g/></defs><g fill="#ffffff" fill-opacity="1"><g transform="translate(8.996335, 30.502998)"><g><path d="M 9.578125 0 L 1.703125 0 L 1.703125 -2.359375 L 4.359375 -2.359375 L 4.359375 -14.15625 L 1.703125 -14.15625 L 1.703125 -16.515625 L 9.578125 -16.515625 L 9.578125 -14.15625 L 6.90625 -14.15625 L 6.90625 -2.359375 L 9.578125 -2.359375 Z M 9.578125 0 "/></g></g></g><g fill="#ffffff" fill-opacity="1"><g transform="translate(20.277161, 30.502998)"><g><path d="M 8.1875 -12.640625 C 9.300781 -12.640625 10.164062 -12.410156 10.78125 -11.953125 C 11.394531 -11.503906 11.820312 -10.894531 12.0625 -10.125 C 12.3125 -9.351562 12.4375 -8.492188 12.4375 -7.546875 L 12.4375 0 L 10 0 L 10 -7.390625 C 10 -7.984375 9.921875 -8.515625 9.765625 -8.984375 C 9.609375 -9.460938 9.34375 -9.832031 8.96875 -10.09375 C 8.59375 -10.363281 8.066406 -10.472656 7.390625 -10.421875 C 6.753906 -10.421875 6.191406 -10.285156 5.703125 -10.015625 C 5.222656 -9.753906 4.835938 -9.40625 4.546875 -8.96875 C 4.265625 -8.53125 4.125 -8.039062 4.125 -7.5 L 4.125 0 L 1.703125 0 L 1.703125 -12.390625 L 4.125 -12.390625 L 4.125 -10.421875 C 4.5 -11.003906 5.046875 -11.519531 5.765625 -11.96875 C 6.492188 -12.414062 7.300781 -12.640625 8.1875 -12.640625 Z M 8.1875 -12.640625 "/></g></g></g><g fill="#ffffff" fill-opacity="1"><g transform="translate(34.319189, 30.502998)"><g><path d="M 5.65625 0 L 3.234375 0 L 3.234375 -10.03125 L 0.65625 -10.03125 L 0.65625 -12.390625 L 3.234375 -12.390625 L 3.234375 -15.546875 L 5.65625 -15.546875 L 5.65625 -12.390625 L 8.546875 -12.390625 L 8.546875 -10.03125 L 5.65625 -10.03125 Z M 5.65625 0 "/></g></g></g><g fill="#ffffff" fill-opacity="1"><g transform="translate(43.381606, 30.502998)"><g><path d="M 12.34375 -1.625 L 12.3125 -1.625 C 11.8125 -1.132812 11.117188 -0.703125 10.234375 -0.328125 C 9.359375 0.046875 8.441406 0.234375 7.484375 0.234375 C 6.191406 0.234375 5.050781 -0.0351562 4.0625 -0.578125 C 3.082031 -1.117188 2.316406 -1.863281 1.765625 -2.8125 C 1.210938 -3.769531 0.9375 -4.851562 0.9375 -6.0625 C 0.9375 -7.445312 1.226562 -8.628906 1.8125 -9.609375 C 2.394531 -10.597656 3.164062 -11.351562 4.125 -11.875 C 5.082031 -12.40625 6.128906 -12.671875 7.265625 -12.671875 C 8.304688 -12.671875 9.25 -12.414062 10.09375 -11.90625 C 10.945312 -11.394531 11.625 -10.691406 12.125 -9.796875 C 12.625 -8.898438 12.875 -7.851562 12.875 -6.65625 L 12.859375 -5.609375 L 3.375 -5.609375 C 3.519531 -4.492188 3.976562 -3.609375 4.75 -2.953125 C 5.53125 -2.304688 6.519531 -1.984375 7.71875 -1.984375 C 8.582031 -1.984375 9.28125 -2.144531 9.8125 -2.46875 C 10.34375 -2.789062 10.785156 -3.097656 11.140625 -3.390625 Z M 7.265625 -10.421875 C 6.335938 -10.421875 5.523438 -10.203125 4.828125 -9.765625 C 4.140625 -9.335938 3.6875 -8.597656 3.46875 -7.546875 L 10.40625 -7.546875 L 10.40625 -7.71875 C 10.351562 -8.25 10.171875 -8.71875 9.859375 -9.125 C 9.554688 -9.539062 9.175781 -9.859375 8.71875 -10.078125 C 8.269531 -10.304688 7.785156 -10.421875 7.265625 -10.421875 Z M 7.265625 -10.421875 "/></g></g></g><g fill="#ffffff" fill-opacity="1"><g transform="translate(57.211238, 30.502998)"><g><path d="M 8.640625 -9.765625 C 8.484375 -9.847656 8.289062 -9.914062 8.0625 -9.96875 C 7.832031 -10.019531 7.59375 -10.046875 7.34375 -10.046875 C 6.832031 -10.046875 6.332031 -9.914062 5.84375 -9.65625 C 5.363281 -9.394531 4.960938 -9.023438 4.640625 -8.546875 C 4.316406 -8.066406 4.15625 -7.5 4.15625 -6.84375 L 4.15625 0 L 1.703125 0 L 1.703125 -12.390625 L 4.15625 -12.390625 L 4.15625 -10.046875 C 4.5 -10.804688 5.019531 -11.425781 5.71875 -11.90625 C 6.414062 -12.394531 7.148438 -12.640625 7.921875 -12.640625 C 8.503906 -12.640625 8.953125 -12.5625 9.265625 -12.40625 Z M 8.640625 -9.765625 "/></g></g></g><g fill="#ffffff" fill-opacity="1"><g transform="translate(66.722057, 30.502998)"><g><path d="M 13.234375 -12.390625 L 13.234375 0 L 10.78125 0 L 10.78125 -1.90625 C 10.40625 -1.382812 9.847656 -0.894531 9.109375 -0.4375 C 8.367188 0.0078125 7.507812 0.234375 6.53125 0.234375 C 5.5 0.234375 4.550781 -0.0390625 3.6875 -0.59375 C 2.832031 -1.144531 2.148438 -1.90625 1.640625 -2.875 C 1.140625 -3.851562 0.890625 -4.972656 0.890625 -6.234375 C 0.890625 -7.484375 1.148438 -8.59375 1.671875 -9.5625 C 2.191406 -10.53125 2.90625 -11.285156 3.8125 -11.828125 C 4.726562 -12.367188 5.769531 -12.640625 6.9375 -12.640625 C 7.800781 -12.640625 8.554688 -12.453125 9.203125 -12.078125 C 9.859375 -11.703125 10.382812 -11.265625 10.78125 -10.765625 L 10.78125 -12.390625 Z M 7.109375 -2 C 7.859375 -2 8.515625 -2.179688 9.078125 -2.546875 C 9.648438 -2.921875 10.09375 -3.425781 10.40625 -4.0625 C 10.71875 -4.707031 10.875 -5.429688 10.875 -6.234375 C 10.875 -7.015625 10.71875 -7.71875 10.40625 -8.34375 C 10.09375 -8.976562 9.648438 -9.476562 9.078125 -9.84375 C 8.515625 -10.21875 7.859375 -10.40625 7.109375 -10.40625 C 6.378906 -10.40625 5.726562 -10.222656 5.15625 -9.859375 C 4.59375 -9.492188 4.15625 -9 3.84375 -8.375 C 3.53125 -7.75 3.375 -7.035156 3.375 -6.234375 C 3.375 -5.429688 3.53125 -4.707031 3.84375 -4.0625 C 4.15625 -3.425781 4.59375 -2.921875 5.15625 -2.546875 C 5.726562 -2.179688 6.378906 -2 7.109375 -2 Z M 7.109375 -2 "/></g></g></g><g fill="#ffffff" fill-opacity="1"><g transform="translate(81.660887, 30.502998)"><g><path d="M 3.25 -6.203125 C 3.25 -5.390625 3.429688 -4.660156 3.796875 -4.015625 C 4.171875 -3.378906 4.660156 -2.875 5.265625 -2.5 C 5.878906 -2.132812 6.53125 -1.953125 7.21875 -1.953125 C 8.007812 -1.953125 8.691406 -2.15625 9.265625 -2.5625 C 9.847656 -2.976562 10.320312 -3.40625 10.6875 -3.84375 L 12.03125 -2.1875 C 11.726562 -1.769531 11.316406 -1.375 10.796875 -1 C 10.285156 -0.632812 9.695312 -0.335938 9.03125 -0.109375 C 8.375 0.117188 7.679688 0.234375 6.953125 0.234375 C 5.828125 0.234375 4.804688 -0.046875 3.890625 -0.609375 C 2.984375 -1.179688 2.265625 -1.953125 1.734375 -2.921875 C 1.203125 -3.898438 0.9375 -4.992188 0.9375 -6.203125 C 0.9375 -7.429688 1.203125 -8.53125 1.734375 -9.5 C 2.265625 -10.46875 2.984375 -11.234375 3.890625 -11.796875 C 4.804688 -12.359375 5.828125 -12.640625 6.953125 -12.640625 C 8.109375 -12.640625 9.132812 -12.40625 10.03125 -11.9375 C 10.925781 -11.476562 11.59375 -10.878906 12.03125 -10.140625 L 10.6875 -8.5 C 10.320312 -9.03125 9.804688 -9.488281 9.140625 -9.875 C 8.472656 -10.257812 7.828125 -10.453125 7.203125 -10.453125 C 6.460938 -10.453125 5.789062 -10.265625 5.1875 -9.890625 C 4.59375 -9.523438 4.117188 -9.023438 3.765625 -8.390625 C 3.421875 -7.753906 3.25 -7.023438 3.25 -6.203125 Z M 3.25 -6.203125 "/></g></g></g><g fill="#ffffff" fill-opacity="1"><g transform="translate(94.286917, 30.502998)"><g><path d="M 5.65625 0 L 3.234375 0 L 3.234375 -10.03125 L 0.65625 -10.03125 L 0.65625 -12.390625 L 3.234375 -12.390625 L 3.234375 -15.546875 L 5.65625 -15.546875 L 5.65625 -12.390625 L 8.546875 -12.390625 L 8.546875 -10.03125 L 5.65625 -10.03125 Z M 5.65625 0 "/></g></g></g><g fill="#ffffff" fill-opacity="1"><g transform="translate(103.349334, 30.502998)"><g><path d="M 1.703125 0 L 1.703125 -17.453125 L 4.125 -17.453125 L 4.125 0 Z M 1.703125 0 "/></g></g></g><g fill="#ffffff" fill-opacity="1"><g transform="translate(109.249345, 30.502998)"><g><path d="M 3.78125 5.421875 L 5.796875 0.78125 L 5.875 0.609375 L 0.125 -12.390625 L 2.953125 -12.390625 L 6.8125 -3.28125 C 6.863281 -3.1875 6.910156 -3.066406 6.953125 -2.921875 C 7.003906 -2.785156 7.0625 -2.628906 7.125 -2.453125 C 7.1875 -2.628906 7.242188 -2.796875 7.296875 -2.953125 C 7.359375 -3.117188 7.421875 -3.28125 7.484375 -3.4375 L 10.71875 -12.390625 L 13.59375 -12.390625 L 8.5 0 L 6.390625 5.421875 Z M 3.78125 5.421875 "/></g></g></g><g fill="#ffffff" fill-opacity="1"><g transform="translate(122.960974, 30.502998)"><g><path d="M 2.6875 0.265625 C 2.132812 0.265625 1.722656 0.101562 1.453125 -0.21875 C 1.191406 -0.539062 1.0625 -0.972656 1.0625 -1.515625 C 1.0625 -1.960938 1.191406 -2.367188 1.453125 -2.734375 C 1.722656 -3.097656 2.132812 -3.28125 2.6875 -3.28125 C 3.238281 -3.28125 3.644531 -3.117188 3.90625 -2.796875 C 4.175781 -2.472656 4.3125 -2.046875 4.3125 -1.515625 C 4.3125 -1.066406 4.175781 -0.65625 3.90625 -0.28125 C 3.644531 0.0820312 3.238281 0.265625 2.6875 0.265625 Z M 2.6875 0.265625 "/></g></g></g><g fill="#ffffff" fill-opacity="1"><g transform="translate(128.341789, 30.502998)"><g><path d="M 13.234375 -12.390625 L 13.234375 0 L 10.78125 0 L 10.78125 -1.90625 C 10.40625 -1.382812 9.847656 -0.894531 9.109375 -0.4375 C 8.367188 0.0078125 7.507812 0.234375 6.53125 0.234375 C 5.5 0.234375 4.550781 -0.0390625 3.6875 -0.59375 C 2.832031 -1.144531 2.148438 -1.90625 1.640625 -2.875 C 1.140625 -3.851562 0.890625 -4.972656 0.890625 -6.234375 C 0.890625 -7.484375 1.148438 -8.59375 1.671875 -9.5625 C 2.191406 -10.53125 2.90625 -11.285156 3.8125 -11.828125 C 4.726562 -12.367188 5.769531 -12.640625 6.9375 -12.640625 C 7.800781 -12.640625 8.554688 -12.453125 9.203125 -12.078125 C 9.859375 -11.703125 10.382812 -11.265625 10.78125 -10.765625 L 10.78125 -12.390625 Z M 7.109375 -2 C 7.859375 -2 8.515625 -2.179688 9.078125 -2.546875 C 9.648438 -2.921875 10.09375 -3.425781 10.40625 -4.0625 C 10.71875 -4.707031 10.875 -5.429688 10.875 -6.234375 C 10.875 -7.015625 10.71875 -7.71875 10.40625 -8.34375 C 10.09375 -8.976562 9.648438 -9.476562 9.078125 -9.84375 C 8.515625 -10.21875 7.859375 -10.40625 7.109375 -10.40625 C 6.378906 -10.40625 5.726562 -10.222656 5.15625 -9.859375 C 4.59375 -9.492188 4.15625 -9 3.84375 -8.375 C 3.53125 -7.75 3.375 -7.035156 3.375 -6.234375 C 3.375 -5.429688 3.53125 -4.707031 3.84375 -4.0625 C 4.15625 -3.425781 4.59375 -2.921875 5.15625 -2.546875 C 5.726562 -2.179688 6.378906 -2 7.109375 -2 Z M 7.109375 -2 "/></g></g></g><g fill="#ffffff" fill-opacity="1"><g transform="translate(143.280619, 30.502998)"><g><path d="M 3.328125 -15.078125 C 2.773438 -15.078125 2.363281 -15.21875 2.09375 -15.5 C 1.832031 -15.78125 1.703125 -16.148438 1.703125 -16.609375 C 1.703125 -17.003906 1.832031 -17.359375 2.09375 -17.671875 C 2.363281 -17.984375 2.773438 -18.140625 3.328125 -18.140625 C 3.878906 -18.140625 4.285156 -18 4.546875 -17.71875 C 4.816406 -17.4375 4.953125 -17.066406 4.953125 -16.609375 C 4.953125 -16.210938 4.816406 -15.859375 4.546875 -15.546875 C 4.285156 -15.234375 3.878906 -15.078125 3.328125 -15.078125 Z M 4.578125 0 L 2.15625 0 L 2.15625 -12.390625 L 4.578125 -12.390625 Z M 4.578125 0 "/></g></g></g><g fill="#ffffff" fill-opacity="1"><g transform="translate(8.996335, 30.502998)"><g><path d="M 9.578125 0 L 1.703125 0 L 1.703125 -2.359375 L 4.359375 -2.359375 L 4.359375 -14.15625 L 1.703125 -14.15625 L 1.703125 -16.515625 L 9.578125 -16.515625 L 9.578125 -14.15625 L 6.90625 -14.15625 L 6.90625 -2.359375 L 9.578125 -2.359375 Z M 9.578125 0 "/></g></g></g><g fill="#ffffff" fill-opacity="1"><g transform="translate(20.277161, 30.502998)"><g><path d="M 8.1875 -12.640625 C 9.300781 -12.640625 10.164062 -12.410156 10.78125 -11.953125 C 11.394531 -11.503906 11.820312 -10.894531 12.0625 -10.125 C 12.3125 -9.351562 12.4375 -8.492188 12.4375 -7.546875 L 12.4375 0 L 10 0 L 10 -7.390625 C 10 -7.984375 9.921875 -8.515625 9.765625 -8.984375 C 9.609375 -9.460938 9.34375 -9.832031 8.96875 -10.09375 C 8.59375 -10.363281 8.066406 -10.472656 7.390625 -10.421875 C 6.753906 -10.421875 6.191406 -10.285156 5.703125 -10.015625 C 5.222656 -9.753906 4.835938 -9.40625 4.546875 -8.96875 C 4.265625 -8.53125 4.125 -8.039062 4.125 -7.5 L 4.125 0 L 1.703125 0 L 1.703125 -12.390625 L 4.125 -12.390625 L 4.125 -10.421875 C 4.5 -11.003906 5.046875 -11.519531 5.765625 -11.96875 C 6.492188 -12.414062 7.300781 -12.640625 8.1875 -12.640625 Z M 8.1875 -12.640625 "/></g></g></g><g fill="#ffffff" fill-opacity="1"><g transform="translate(34.319189, 30.502998)"><g><path d="M 5.65625 0 L 3.234375 0 L 3.234375 -10.03125 L 0.65625 -10.03125 L 0.65625 -12.390625 L 3.234375 -12.390625 L 3.234375 -15.546875 L 5.65625 -15.546875 L 5.65625 -12.390625 L 8.546875 -12.390625 L 8.546875 -10.03125 L 5.65625 -10.03125 Z M 5.65625 0 "/></g></g></g><g fill="#ffffff" fill-opacity="1"><g transform="translate(43.381606, 30.502998)"><g><path d="M 12.34375 -1.625 L 12.3125 -1.625 C 11.8125 -1.132812 11.117188 -0.703125 10.234375 -0.328125 C 9.359375 0.046875 8.441406 0.234375 7.484375 0.234375 C 6.191406 0.234375 5.050781 -0.0351562 4.0625 -0.578125 C 3.082031 -1.117188 2.316406 -1.863281 1.765625 -2.8125 C 1.210938 -3.769531 0.9375 -4.851562 0.9375 -6.0625 C 0.9375 -7.445312 1.226562 -8.628906 1.8125 -9.609375 C 2.394531 -10.597656 3.164062 -11.351562 4.125 -11.875 C 5.082031 -12.40625 6.128906 -12.671875 7.265625 -12.671875 C 8.304688 -12.671875 9.25 -12.414062 10.09375 -11.90625 C 10.945312 -11.394531 11.625 -10.691406 12.125 -9.796875 C 12.625 -8.898438 12.875 -7.851562 12.875 -6.65625 L 12.859375 -5.609375 L 3.375 -5.609375 C 3.519531 -4.492188 3.976562 -3.609375 4.75 -2.953125 C 5.53125 -2.304688 6.519531 -1.984375 7.71875 -1.984375 C 8.582031 -1.984375 9.28125 -2.144531 9.8125 -2.46875 C 10.34375 -2.789062 10.785156 -3.097656 11.140625 -3.390625 Z M 7.265625 -10.421875 C 6.335938 -10.421875 5.523438 -10.203125 4.828125 -9.765625 C 4.140625 -9.335938 3.6875 -8.597656 3.46875 -7.546875 L 10.40625 -7.546875 L 10.40625 -7.71875 C 10.351562 -8.25 10.171875 -8.71875 9.859375 -9.125 C 9.554688 -9.539062 9.175781 -9.859375 8.71875 -10.078125 C 8.269531 -10.304688 7.785156 -10.421875 7.265625 -10.421875 Z M 7.265625 -10.421875 "/></g></g></g><g fill="#ffffff" fill-opacity="1"><g transform="translate(57.211238, 30.502998)"><g><path d="M 8.640625 -9.765625 C 8.484375 -9.847656 8.289062 -9.914062 8.0625 -9.96875 C 7.832031 -10.019531 7.59375 -10.046875 7.34375 -10.046875 C 6.832031 -10.046875 6.332031 -9.914062 5.84375 -9.65625 C 5.363281 -9.394531 4.960938 -9.023438 4.640625 -8.546875 C 4.316406 -8.066406 4.15625 -7.5 4.15625 -6.84375 L 4.15625 0 L 1.703125 0 L 1.703125 -12.390625 L 4.15625 -12.390625 L 4.15625 -10.046875 C 4.5 -10.804688 5.019531 -11.425781 5.71875 -11.90625 C 6.414062 -12.394531 7.148438 -12.640625 7.921875 -12.640625 C 8.503906 -12.640625 8.953125 -12.5625 9.265625 -12.40625 Z M 8.640625 -9.765625 "/></g></g></g><g fill="#ffffff" fill-opacity="1"><g transform="translate(66.722057, 30.502998)"><g><path d="M 13.234375 -12.390625 L 13.234375 0 L 10.78125 0 L 10.78125 -1.90625 C 10.40625 -1.382812 9.847656 -0.894531 9.109375 -0.4375 C 8.367188 0.0078125 7.507812 0.234375 6.53125 0.234375 C 5.5 0.234375 4.550781 -0.0390625 3.6875 -0.59375 C 2.832031 -1.144531 2.148438 -1.90625 1.640625 -2.875 C 1.140625 -3.851562 0.890625 -4.972656 0.890625 -6.234375 C 0.890625 -7.484375 1.148438 -8.59375 1.671875 -9.5625 C 2.191406 -10.53125 2.90625 -11.285156 3.8125 -11.828125 C 4.726562 -12.367188 5.769531 -12.640625 6.9375 -12.640625 C 7.800781 -12.640625 8.554688 -12.453125 9.203125 -12.078125 C 9.859375 -11.703125 10.382812 -11.265625 10.78125 -10.765625 L 10.78125 -12.390625 Z M 7.109375 -2 C 7.859375 -2 8.515625 -2.179688 9.078125 -2.546875 C 9.648438 -2.921875 10.09375 -3.425781 10.40625 -4.0625 C 10.71875 -4.707031 10.875 -5.429688 10.875 -6.234375 C 10.875 -7.015625 10.71875 -7.71875 10.40625 -8.34375 C 10.09375 -8.976562 9.648438 -9.476562 9.078125 -9.84375 C 8.515625 -10.21875 7.859375 -10.40625 7.109375 -10.40625 C 6.378906 -10.40625 5.726562 -10.222656 5.15625 -9.859375 C 4.59375 -9.492188 4.15625 -9 3.84375 -8.375 C 3.53125 -7.75 3.375 -7.035156 3.375 -6.234375 C 3.375 -5.429688 3.53125 -4.707031 3.84375 -4.0625 C 4.15625 -3.425781 4.59375 -2.921875 5.15625 -2.546875 C 5.726562 -2.179688 6.378906 -2 7.109375 -2 Z M 7.109375 -2 "/></g></g></g><g fill="#ffffff" fill-opacity="1"><g transform="translate(81.660887, 30.502998)"><g><path d="M 3.25 -6.203125 C 3.25 -5.390625 3.429688 -4.660156 3.796875 -4.015625 C 4.171875 -3.378906 4.660156 -2.875 5.265625 -2.5 C 5.878906 -2.132812 6.53125 -1.953125 7.21875 -1.953125 C 8.007812 -1.953125 8.691406 -2.15625 9.265625 -2.5625 C 9.847656 -2.976562 10.320312 -3.40625 10.6875 -3.84375 L 12.03125 -2.1875 C 11.726562 -1.769531 11.316406 -1.375 10.796875 -1 C 10.285156 -0.632812 9.695312 -0.335938 9.03125 -0.109375 C 8.375 0.117188 7.679688 0.234375 6.953125 0.234375 C 5.828125 0.234375 4.804688 -0.046875 3.890625 -0.609375 C 2.984375 -1.179688 2.265625 -1.953125 1.734375 -2.921875 C 1.203125 -3.898438 0.9375 -4.992188 0.9375 -6.203125 C 0.9375 -7.429688 1.203125 -8.53125 1.734375 -9.5 C 2.265625 -10.46875 2.984375 -11.234375 3.890625 -11.796875 C 4.804688 -12.359375 5.828125 -12.640625 6.953125 -12.640625 C 8.109375 -12.640625 9.132812 -12.40625 10.03125 -11.9375 C 10.925781 -11.476562 11.59375 -10.878906 12.03125 -10.140625 L 10.6875 -8.5 C 10.320312 -9.03125 9.804688 -9.488281 9.140625 -9.875 C 8.472656 -10.257812 7.828125 -10.453125 7.203125 -10.453125 C 6.460938 -10.453125 5.789062 -10.265625 5.1875 -9.890625 C 4.59375 -9.523438 4.117188 -9.023438 3.765625 -8.390625 C 3.421875 -7.753906 3.25 -7.023438 3.25 -6.203125 Z M 3.25 -6.203125 "/></g></g></g><g fill="#ffffff" fill-opacity="1"><g transform="translate(94.286917, 30.502998)"><g><path d="M 5.65625 0 L 3.234375 0 L 3.234375 -10.03125 L 0.65625 -10.03125 L 0.65625 -12.390625 L 3.234375 -12.390625 L 3.234375 -15.546875 L 5.65625 -15.546875 L 5.65625 -12.390625 L 8.546875 -12.390625 L 8.546875 -10.03125 L 5.65625 -10.03125 Z M 5.65625 0 "/></g></g></g><g fill="#ffffff" fill-opacity="1"><g transform="translate(103.349334, 30.502998)"><g><path d="M 1.703125 0 L 1.703125 -17.453125 L 4.125 -17.453125 L 4.125 0 Z M 1.703125 0 "/></g></g></g><g fill="#ffffff" fill-opacity="1"><g transform="translate(109.249345, 30.502998)"><g><path d="M 3.78125 5.421875 L 5.796875 0.78125 L 5.875 0.609375 L 0.125 -12.390625 L 2.953125 -12.390625 L 6.8125 -3.28125 C 6.863281 -3.1875 6.910156 -3.066406 6.953125 -2.921875 C 7.003906 -2.785156 7.0625 -2.628906 7.125 -2.453125 C 7.1875 -2.628906 7.242188 -2.796875 7.296875 -2.953125 C 7.359375 -3.117188 7.421875 -3.28125 7.484375 -3.4375 L 10.71875 -12.390625 L 13.59375 -12.390625 L 8.5 0 L 6.390625 5.421875 Z M 3.78125 5.421875 "/></g></g></g><g fill="#ffffff" fill-opacity="1"><g transform="translate(122.960974, 30.502998)"><g><path d="M 2.6875 0.265625 C 2.132812 0.265625 1.722656 0.101562 1.453125 -0.21875 C 1.191406 -0.539062 1.0625 -0.972656 1.0625 -1.515625 C 1.0625 -1.960938 1.191406 -2.367188 1.453125 -2.734375 C 1.722656 -3.097656 2.132812 -3.28125 2.6875 -3.28125 C 3.238281 -3.28125 3.644531 -3.117188 3.90625 -2.796875 C 4.175781 -2.472656 4.3125 -2.046875 4.3125 -1.515625 C 4.3125 -1.066406 4.175781 -0.65625 3.90625 -0.28125 C 3.644531 0.0820312 3.238281 0.265625 2.6875 0.265625 Z M 2.6875 0.265625 "/></g></g></g><g fill="#ffffff" fill-opacity="1"><g transform="translate(128.341789, 30.502998)"><g><path d="M 13.234375 -12.390625 L 13.234375 0 L 10.78125 0 L 10.78125 -1.90625 C 10.40625 -1.382812 9.847656 -0.894531 9.109375 -0.4375 C 8.367188 0.0078125 7.507812 0.234375 6.53125 0.234375 C 5.5 0.234375 4.550781 -0.0390625 3.6875 -0.59375 C 2.832031 -1.144531 2.148438 -1.90625 1.640625 -2.875 C 1.140625 -3.851562 0.890625 -4.972656 0.890625 -6.234375 C 0.890625 -7.484375 1.148438 -8.59375 1.671875 -9.5625 C 2.191406 -10.53125 2.90625 -11.285156 3.8125 -11.828125 C 4.726562 -12.367188 5.769531 -12.640625 6.9375 -12.640625 C 7.800781 -12.640625 8.554688 -12.453125 9.203125 -12.078125 C 9.859375 -11.703125 10.382812 -11.265625 10.78125 -10.765625 L 10.78125 -12.390625 Z M 7.109375 -2 C 7.859375 -2 8.515625 -2.179688 9.078125 -2.546875 C 9.648438 -2.921875 10.09375 -3.425781 10.40625 -4.0625 C 10.71875 -4.707031 10.875 -5.429688 10.875 -6.234375 C 10.875 -7.015625 10.71875 -7.71875 10.40625 -8.34375 C 10.09375 -8.976562 9.648438 -9.476562 9.078125 -9.84375 C 8.515625 -10.21875 7.859375 -10.40625 7.109375 -10.40625 C 6.378906 -10.40625 5.726562 -10.222656 5.15625 -9.859375 C 4.59375 -9.492188 4.15625 -9 3.84375 -8.375 C 3.53125 -7.75 3.375 -7.035156 3.375 -6.234375 C 3.375 -5.429688 3.53125 -4.707031 3.84375 -4.0625 C 4.15625 -3.425781 4.59375 -2.921875 5.15625 -2.546875 C 5.726562 -2.179688 6.378906 -2 7.109375 -2 Z M 7.109375 -2 "/></g></g></g><g fill="#ffffff" fill-opacity="1"><g transform="translate(143.280619, 30.502998)"><g><path d="M 3.328125 -15.078125 C 2.773438 -15.078125 2.363281 -15.21875 2.09375 -15.5 C 1.832031 -15.78125 1.703125 -16.148438 1.703125 -16.609375 C 1.703125 -17.003906 1.832031 -17.359375 2.09375 -17.671875 C 2.363281 -17.984375 2.773438 -18.140625 3.328125 -18.140625 C 3.878906 -18.140625 4.285156 -18 4.546875 -17.71875 C 4.816406 -17.4375 4.953125 -17.066406 4.953125 -16.609375 C 4.953125 -16.210938 4.816406 -15.859375 4.546875 -15.546875 C 4.285156 -15.234375 3.878906 -15.078125 3.328125 -15.078125 Z M 4.578125 0 L 2.15625 0 L 2.15625 -12.390625 L 4.578125 -12.390625 Z M 4.578125 0 "/></g></g></g></svg>