<svg width="157" height="32" viewBox="0 0 157 32" fill="none" xmlns="http://www.w3.org/2000/svg">
<path d="M16.815 24.5H9.54C8.99896 24.5 8.48008 24.2851 8.0975 23.9025C7.71493 23.5199 7.5 23.001 7.5 22.46V9.54C7.5 8.99896 7.71493 8.48008 8.0975 8.0975C8.48008 7.71493 8.99896 7.5 9.54 7.5H22.46C23.001 7.5 23.5199 7.71493 23.9025 8.0975C24.2851 8.48008 24.5 8.99896 24.5 9.54V16C24.5046 16.1364 24.5628 16.2654 24.6621 16.3591C24.7614 16.4527 24.8936 16.5034 25.03 16.5C25.4557 16.4987 25.8759 16.5963 26.2575 16.785C26.3367 16.8256 26.4251 16.845 26.514 16.8413C26.603 16.8376 26.6895 16.8109 26.765 16.7638C26.8406 16.7167 26.9026 16.6509 26.9451 16.5726C26.9876 16.4944 27.0091 16.4065 27.0075 16.3175V9.54C27.0075 8.94317 26.8898 8.35219 26.6612 7.80088C26.4326 7.24958 26.0975 6.74876 25.6751 6.32708C25.2527 5.9054 24.7514 5.57115 24.1997 5.34343C23.648 5.11572 23.0568 4.99901 22.46 5H9.54C8.33592 5 7.18115 5.47832 6.32974 6.32974C5.47832 7.18115 5 8.33592 5 9.54V22.46C5 23.6641 5.47832 24.8188 6.32974 25.6703C7.18115 26.5217 8.33592 27 9.54 27H17.865C17.9673 27.0001 18.0673 26.9699 18.1525 26.9132C18.2376 26.8565 18.3041 26.7759 18.3434 26.6814C18.3827 26.587 18.3932 26.483 18.3734 26.3827C18.3537 26.2823 18.3047 26.19 18.2325 26.1175C17.8435 25.7606 17.5284 25.3308 17.305 24.8525C17.2692 24.7507 17.203 24.6623 17.1154 24.5992C17.0278 24.5362 16.9229 24.5016 16.815 24.5Z" fill="url(#paint0_linear_1_2)"/>
<path d="M27.9326 25.4495L30.1976 24.557C30.2442 24.5386 30.2842 24.5066 30.3124 24.4651C30.3406 24.4237 30.3557 24.3747 30.3557 24.3245C30.3557 24.2744 30.3406 24.2254 30.3124 24.1839C30.2842 24.1425 30.2442 24.1105 30.1976 24.092L27.9326 23.1995C27.5317 23.041 27.1675 22.8019 26.8626 22.497C26.5577 22.1922 26.3186 21.828 26.1601 21.427L25.2676 19.177C25.2491 19.1305 25.217 19.0906 25.1756 19.0626C25.1341 19.0345 25.0852 19.0195 25.0351 19.0195C24.985 19.0195 24.9361 19.0345 24.8946 19.0626C24.8532 19.0906 24.8211 19.1305 24.8026 19.177L23.9101 21.427C23.752 21.8282 23.513 22.1926 23.2081 22.4975C22.9032 22.8024 22.5388 23.0414 22.1376 23.1995L19.8876 24.092C19.841 24.1105 19.801 24.1425 19.7728 24.1839C19.7446 24.2254 19.7295 24.2744 19.7295 24.3245C19.7295 24.3747 19.7446 24.4237 19.7728 24.4651C19.801 24.5066 19.841 24.5386 19.8876 24.557L22.1376 25.4495C22.5388 25.6077 22.9032 25.8466 23.2081 26.1516C23.513 26.4565 23.752 26.8208 23.9101 27.222L24.8026 29.472C24.8207 29.519 24.8526 29.5594 24.8941 29.588C24.9356 29.6165 24.9847 29.6319 25.0351 29.632C25.0855 29.6319 25.1346 29.6165 25.1761 29.588C25.2176 29.5594 25.2495 29.519 25.2676 29.472L26.1601 27.222C26.3186 26.8211 26.5577 26.4569 26.8626 26.152C27.1675 25.8472 27.5317 25.6081 27.9326 25.4495Z" fill="url(#paint1_linear_1_2)"/>
<g clip-path="url(#clip0_1_2)">
<path d="M17.2552 20H14.7448C14.6154 20 14.5104 19.8951 14.5104 19.7656V17.4896H12.2344C12.1049 17.4896 12 17.3846 12 17.2552V14.7448C12 14.6154 12.1049 14.5104 12.2344 14.5104H14.5104V12.2344C14.5104 12.1049 14.6154 12 14.7448 12H17.2552C17.3846 12 17.4896 12.1049 17.4896 12.2344V14.5104H19.7656C19.8951 14.5104 20 14.6154 20 14.7448V17.2552C20 17.3846 19.8951 17.4896 19.7656 17.4896H17.4896V19.7656C17.4896 19.8951 17.3846 20 17.2552 20Z" fill="url(#paint2_linear_1_2)"/>
</g>
<path d="M43.81 8.34C43.9833 8.30667 44.18 8.28667 44.4 8.28C44.62 8.26667 44.81 8.26 44.97 8.26C45.15 8.26 45.3467 8.26667 45.56 8.28C45.7733 8.28667 45.97 8.30667 46.15 8.34V22C45.97 22.0333 45.7733 22.0533 45.56 22.06C45.3467 22.0733 45.15 22.08 44.97 22.08C44.81 22.08 44.62 22.0733 44.4 22.06C44.18 22.0533 43.9833 22.0333 43.81 22V8.34ZM50.427 12.01C50.8937 12.01 51.2237 12.1567 51.417 12.45C51.617 12.7367 51.717 13.1333 51.717 13.64V22C51.5637 22.0267 51.387 22.0467 51.187 22.06C50.987 22.0733 50.787 22.08 50.587 22.08C50.387 22.08 50.187 22.0733 49.987 22.06C49.787 22.0467 49.607 22.0267 49.447 22V12.14L49.577 12.01H50.427ZM57.467 19.81C57.467 20.1633 57.4904 20.5 57.537 20.82C57.5904 21.14 57.687 21.4167 57.827 21.65C57.667 21.79 57.457 21.9067 57.197 22C56.9437 22.0933 56.677 22.14 56.397 22.14C55.9504 22.14 55.637 22.02 55.457 21.78C55.277 21.5333 55.187 21.1733 55.187 20.7V15.78C55.187 15.1533 55.107 14.6967 54.947 14.41C54.787 14.1233 54.4804 13.98 54.027 13.98C53.7137 13.98 53.3737 14.0567 53.007 14.21C52.647 14.3567 52.3004 14.5733 51.967 14.86C51.6337 15.1467 51.3604 15.49 51.147 15.89V13.75C51.6004 13.25 52.1404 12.8233 52.767 12.47C53.3937 12.11 54.067 11.93 54.787 11.93C55.407 11.93 55.9137 12.0767 56.307 12.37C56.7004 12.6633 56.9904 13.06 57.177 13.56C57.3704 14.06 57.467 14.6267 57.467 15.26V19.81ZM60.745 10.48C60.745 9.97333 60.8317 9.61 61.005 9.39C61.1783 9.16333 61.4983 9.05 61.965 9.05H62.835L62.965 9.19V19.42C62.965 19.6933 63.0283 19.91 63.155 20.07C63.2883 20.2233 63.505 20.3 63.805 20.3H65.135C65.1883 20.46 65.2317 20.64 65.265 20.84C65.2983 21.04 65.315 21.2367 65.315 21.43C65.315 21.5167 65.3117 21.6033 65.305 21.69C65.305 21.7767 65.2917 21.86 65.265 21.94C64.925 21.98 64.555 22.0133 64.155 22.04C63.7617 22.0733 63.365 22.09 62.965 22.09C62.2383 22.09 61.685 21.91 61.305 21.55C60.9317 21.1833 60.745 20.63 60.745 19.89V10.48ZM65.425 12.09C65.4917 12.3567 65.525 12.63 65.525 12.91C65.525 13.0567 65.5183 13.2 65.505 13.34C65.4917 13.4733 65.465 13.61 65.425 13.75L62.055 13.7L59.255 13.75C59.195 13.4767 59.165 13.1967 59.165 12.91C59.165 12.6433 59.195 12.37 59.255 12.09L62.095 12.13L65.425 12.09ZM68.0686 17.78V16.15H72.7086V15.89C72.7086 15.4567 72.6453 15.06 72.5186 14.7C72.3986 14.34 72.2019 14.05 71.9286 13.83C71.6619 13.61 71.3053 13.5 70.8586 13.5C70.2186 13.5 69.7419 13.77 69.4286 14.31C69.1219 14.85 68.9686 15.6033 68.9686 16.57V17.27C68.9686 17.8567 69.0286 18.3933 69.1486 18.88C69.2686 19.36 69.4853 19.74 69.7986 20.02C70.1186 20.3 70.5753 20.44 71.1686 20.44C71.6686 20.44 72.1486 20.37 72.6086 20.23C73.0686 20.09 73.5053 19.9167 73.9186 19.71C74.1053 19.8833 74.2586 20.1067 74.3786 20.38C74.4986 20.6533 74.5753 20.9067 74.6086 21.14C74.1286 21.4867 73.5519 21.76 72.8786 21.96C72.2053 22.16 71.5186 22.26 70.8186 22.26C70.0119 22.26 69.3386 22.12 68.7986 21.84C68.2586 21.5533 67.8286 21.1667 67.5086 20.68C67.1953 20.1933 66.9719 19.64 66.8386 19.02C66.7053 18.4 66.6386 17.7533 66.6386 17.08C66.6386 16.0867 66.7919 15.1967 67.0986 14.41C67.4053 13.6167 67.8719 12.99 68.4986 12.53C69.1253 12.07 69.9153 11.84 70.8686 11.84C71.7353 11.84 72.4653 12.03 73.0586 12.41C73.6586 12.7833 74.1119 13.2933 74.4186 13.94C74.7253 14.58 74.8786 15.2967 74.8786 16.09C74.8786 16.4367 74.8653 16.7333 74.8386 16.98C74.8119 17.22 74.7653 17.4867 74.6986 17.78H68.0686ZM83.1891 12.09C83.1891 12.3833 83.1424 12.7367 83.0491 13.15C82.9624 13.5567 82.8224 13.9167 82.6291 14.23C82.4891 14.19 82.3457 14.1633 82.1991 14.15C82.0591 14.13 81.9191 14.12 81.7791 14.12C81.4191 14.12 81.1024 14.1933 80.8291 14.34C80.5624 14.48 80.3324 14.67 80.1391 14.91C79.9457 15.1433 79.7791 15.41 79.6391 15.71C79.4991 16.0033 79.3791 16.3 79.2791 16.6L78.9691 16.2C78.9824 15.7133 79.0457 15.2233 79.1591 14.73C79.2724 14.23 79.4457 13.7733 79.6791 13.36C79.9191 12.94 80.2324 12.6033 80.6191 12.35C81.0124 12.0967 81.4957 11.97 82.0691 11.97C82.2757 11.97 82.4657 11.98 82.6391 12C82.8124 12.02 82.9957 12.05 83.1891 12.09ZM76.7091 13.16C76.7557 12.9533 76.8557 12.7333 77.0091 12.5C77.1691 12.26 77.3324 12.08 77.4991 11.96C78.2191 12.0867 78.7557 12.4233 79.1091 12.97C79.4624 13.51 79.6657 14.1967 79.7191 15.03V22C79.5724 22.0267 79.3991 22.0467 79.1991 22.06C78.9991 22.0733 78.7957 22.08 78.5891 22.08C78.3891 22.08 78.1891 22.0733 77.9891 22.06C77.7891 22.0467 77.6091 22.0267 77.4491 22V15.22C77.4491 14.6733 77.3657 14.23 77.1991 13.89C77.0391 13.55 76.8757 13.3067 76.7091 13.16ZM83.9333 19.31C83.9333 18.5367 84.1033 17.9033 84.4433 17.41C84.7899 16.9167 85.2533 16.5533 85.8333 16.32C86.4199 16.08 87.0699 15.96 87.7833 15.96C88.1433 15.96 88.5566 15.9767 89.0233 16.01C89.4899 16.0367 89.9233 16.0933 90.3233 16.18V17.69C89.9833 17.61 89.5933 17.56 89.1533 17.54C88.7133 17.5133 88.3133 17.5 87.9533 17.5C87.3799 17.5 86.9399 17.65 86.6333 17.95C86.3266 18.2433 86.1733 18.6433 86.1733 19.15C86.1733 19.53 86.2833 19.85 86.5033 20.11C86.7233 20.37 87.0366 20.5 87.4433 20.5C87.9099 20.5 88.3999 20.3367 88.9133 20.01C89.4333 19.6833 89.8699 19.2067 90.2233 18.58L90.5633 20.23C90.3233 20.5167 90.0266 20.82 89.6733 21.14C89.3266 21.4533 88.9233 21.72 88.4633 21.94C88.0033 22.1533 87.4799 22.26 86.8933 22.26C86.2266 22.26 85.6733 22.1133 85.2333 21.82C84.7933 21.5267 84.4666 21.1533 84.2533 20.7C84.0399 20.2467 83.9333 19.7833 83.9333 19.31ZM92.4133 20.97C92.3666 21.1767 92.2633 21.3967 92.1033 21.63C91.9499 21.8633 91.7866 22.0367 91.6133 22.15C91.1599 22.0833 90.7899 21.9333 90.5033 21.7C90.2166 21.4667 90.0033 21.1867 89.8633 20.86C89.7233 20.5267 89.6366 20.1867 89.6033 19.84V15.37C89.6033 14.79 89.4666 14.37 89.1933 14.11C88.9266 13.8433 88.5399 13.71 88.0333 13.71C87.5466 13.71 87.0399 13.7833 86.5133 13.93C85.9866 14.0767 85.4566 14.2467 84.9233 14.44C84.7499 14.26 84.6066 14.0133 84.4933 13.7C84.3799 13.3867 84.3166 13.0833 84.3033 12.79C84.6899 12.6233 85.1266 12.4733 85.6133 12.34C86.0999 12.2 86.5966 12.09 87.1033 12.01C87.6166 11.93 88.0966 11.89 88.5433 11.89C89.1833 11.89 89.7499 12.0067 90.2433 12.24C90.7433 12.4733 91.1366 12.84 91.4233 13.34C91.7099 13.8333 91.8533 14.47 91.8533 15.25V19.35C91.8533 19.7033 91.8933 20.0167 91.9733 20.29C92.0533 20.5633 92.1999 20.79 92.4133 20.97ZM99.8319 16.04C99.8452 15.5933 99.8085 15.1833 99.7219 14.81C99.6419 14.43 99.4785 14.13 99.2319 13.91C98.9919 13.6833 98.6452 13.57 98.1919 13.57C97.5919 13.57 97.1319 13.8633 96.8119 14.45C96.4985 15.03 96.3419 15.9133 96.3419 17.1C96.3419 18.2733 96.5285 19.1233 96.9019 19.65C97.2819 20.17 97.8119 20.43 98.4919 20.43C98.9385 20.43 99.3619 20.33 99.7619 20.13C100.169 19.93 100.542 19.7033 100.882 19.45C101.082 19.57 101.275 19.7633 101.462 20.03C101.649 20.29 101.769 20.54 101.822 20.78C101.369 21.2267 100.822 21.5867 100.182 21.86C99.5485 22.1267 98.8685 22.26 98.1419 22.26C97.4285 22.26 96.8085 22.1267 96.2819 21.86C95.7619 21.5933 95.3319 21.2233 94.9919 20.75C94.6585 20.2767 94.4085 19.73 94.2419 19.11C94.0819 18.4833 94.0019 17.8133 94.0019 17.1C94.0019 16.1667 94.1185 15.3667 94.3519 14.7C94.5919 14.0333 94.9152 13.49 95.3219 13.07C95.7285 12.65 96.1819 12.34 96.6819 12.14C97.1885 11.94 97.7085 11.84 98.2419 11.84C98.8419 11.84 99.3685 11.93 99.8219 12.11C100.282 12.2833 100.669 12.52 100.982 12.82C101.295 13.1133 101.529 13.4433 101.682 13.81C101.842 14.17 101.922 14.5367 101.922 14.91C101.922 15.2967 101.825 15.5967 101.632 15.81C101.445 16.0233 101.159 16.13 100.772 16.13C100.425 16.13 100.112 16.1 99.8319 16.04ZM104.475 10.48C104.475 9.97333 104.562 9.61 104.735 9.39C104.909 9.16333 105.229 9.05 105.695 9.05H106.565L106.695 9.19V19.42C106.695 19.6933 106.759 19.91 106.885 20.07C107.019 20.2233 107.235 20.3 107.535 20.3H108.865C108.919 20.46 108.962 20.64 108.995 20.84C109.029 21.04 109.045 21.2367 109.045 21.43C109.045 21.5167 109.042 21.6033 109.035 21.69C109.035 21.7767 109.022 21.86 108.995 21.94C108.655 21.98 108.285 22.0133 107.885 22.04C107.492 22.0733 107.095 22.09 106.695 22.09C105.969 22.09 105.415 21.91 105.035 21.55C104.662 21.1833 104.475 20.63 104.475 19.89V10.48ZM109.155 12.09C109.222 12.3567 109.255 12.63 109.255 12.91C109.255 13.0567 109.249 13.2 109.235 13.34C109.222 13.4733 109.195 13.61 109.155 13.75L105.785 13.7L102.985 13.75C102.925 13.4767 102.895 13.1967 102.895 12.91C102.895 12.6433 102.925 12.37 102.985 12.09L105.825 12.13L109.155 12.09ZM114.905 20.3C114.965 20.46 115.012 20.64 115.045 20.84C115.078 21.0333 115.095 21.23 115.095 21.43C115.095 21.5167 115.092 21.6033 115.085 21.69C115.078 21.7767 115.065 21.86 115.045 21.94C114.798 21.9733 114.512 22.0067 114.185 22.04C113.858 22.0733 113.545 22.09 113.245 22.09C112.552 22.09 112.032 21.91 111.685 21.55C111.345 21.1833 111.175 20.63 111.175 19.89V7.42L111.305 7.29H112.175C112.642 7.29 112.962 7.40333 113.135 7.63C113.315 7.85 113.405 8.21333 113.405 8.72V19.41C113.405 19.7033 113.468 19.9267 113.595 20.08C113.728 20.2267 113.932 20.3 114.205 20.3H114.905ZM117.548 26.37C117.214 26.37 116.848 26.3333 116.448 26.26C116.054 26.1933 115.748 26.1167 115.528 26.03C115.508 25.77 115.544 25.4767 115.638 25.15C115.738 24.83 115.861 24.58 116.008 24.4C116.181 24.46 116.414 24.5167 116.708 24.57C117.001 24.63 117.284 24.66 117.558 24.66C117.984 24.66 118.341 24.5667 118.628 24.38C118.921 24.1933 119.164 23.9267 119.358 23.58C119.558 23.2333 119.728 22.8267 119.868 22.36L119.938 22.1C119.498 22.0933 119.141 22.0133 118.868 21.86C118.601 21.7 118.408 21.4133 118.288 21L115.718 12.28C115.971 12.1667 116.218 12.0833 116.458 12.03C116.704 11.9767 116.921 11.95 117.108 11.95C117.381 11.95 117.611 12.02 117.798 12.16C117.991 12.3 118.138 12.5633 118.238 12.95L119.508 17.41C119.594 17.6967 119.681 18.0167 119.768 18.37C119.854 18.7233 119.934 19.07 120.008 19.41C120.081 19.7433 120.144 20.0333 120.198 20.28C120.224 20.3733 120.288 20.42 120.388 20.42L122.488 12.1C122.621 12.0667 122.774 12.0433 122.948 12.03C123.128 12.0167 123.291 12.01 123.438 12.01C123.638 12.01 123.838 12.0233 124.038 12.05C124.238 12.07 124.431 12.11 124.618 12.17L124.698 12.3L122.088 21.69C121.814 22.6833 121.498 23.5267 121.138 24.22C120.784 24.92 120.324 25.4533 119.758 25.82C119.198 26.1867 118.461 26.37 117.548 26.37ZM124.996 20.86C124.996 20.74 125.013 20.57 125.046 20.35C125.08 20.1233 125.13 19.9467 125.196 19.82C125.343 19.7333 125.54 19.6633 125.786 19.61C126.033 19.5567 126.266 19.53 126.486 19.53C126.7 19.53 126.933 19.5567 127.186 19.61C127.446 19.6633 127.646 19.7333 127.786 19.82C127.86 19.9467 127.91 20.1233 127.936 20.35C127.97 20.57 127.986 20.74 127.986 20.86C127.986 20.98 127.97 21.15 127.936 21.37C127.91 21.5833 127.86 21.7567 127.786 21.89C127.653 21.9767 127.456 22.0433 127.196 22.09C126.936 22.1433 126.7 22.17 126.486 22.17C126.266 22.17 126.033 22.1433 125.786 22.09C125.54 22.0433 125.343 21.9767 125.196 21.89C125.13 21.7567 125.08 21.5833 125.046 21.37C125.013 21.15 124.996 20.98 124.996 20.86ZM129.988 19.31C129.988 18.5367 130.158 17.9033 130.498 17.41C130.845 16.9167 131.308 16.5533 131.888 16.32C132.475 16.08 133.125 15.96 133.838 15.96C134.198 15.96 134.611 15.9767 135.078 16.01C135.545 16.0367 135.978 16.0933 136.378 16.18V17.69C136.038 17.61 135.648 17.56 135.208 17.54C134.768 17.5133 134.368 17.5 134.008 17.5C133.435 17.5 132.995 17.65 132.688 17.95C132.381 18.2433 132.228 18.6433 132.228 19.15C132.228 19.53 132.338 19.85 132.558 20.11C132.778 20.37 133.091 20.5 133.498 20.5C133.965 20.5 134.455 20.3367 134.968 20.01C135.488 19.6833 135.925 19.2067 136.278 18.58L136.618 20.23C136.378 20.5167 136.081 20.82 135.728 21.14C135.381 21.4533 134.978 21.72 134.518 21.94C134.058 22.1533 133.535 22.26 132.948 22.26C132.281 22.26 131.728 22.1133 131.288 21.82C130.848 21.5267 130.521 21.1533 130.308 20.7C130.095 20.2467 129.988 19.7833 129.988 19.31ZM138.468 20.97C138.421 21.1767 138.318 21.3967 138.158 21.63C138.005 21.8633 137.841 22.0367 137.668 22.15C137.215 22.0833 136.845 21.9333 136.558 21.7C136.271 21.4667 136.058 21.1867 135.918 20.86C135.778 20.5267 135.691 20.1867 135.658 19.84V15.37C135.658 14.79 135.521 14.37 135.248 14.11C134.981 13.8433 134.595 13.71 134.088 13.71C133.601 13.71 133.095 13.7833 132.568 13.93C132.041 14.0767 131.511 14.2467 130.978 14.44C130.805 14.26 130.661 14.0133 130.548 13.7C130.435 13.3867 130.371 13.0833 130.358 12.79C130.745 12.6233 131.181 12.4733 131.668 12.34C132.155 12.2 132.651 12.09 133.158 12.01C133.671 11.93 134.151 11.89 134.598 11.89C135.238 11.89 135.805 12.0067 136.298 12.24C136.798 12.4733 137.191 12.84 137.478 13.34C137.765 13.8333 137.908 14.47 137.908 15.25V19.35C137.908 19.7033 137.948 20.0167 138.028 20.29C138.108 20.5633 138.255 20.79 138.468 20.97ZM143.453 22C143.299 22.0267 143.123 22.0467 142.923 22.06C142.729 22.0733 142.529 22.08 142.323 22.08C142.123 22.08 141.923 22.0733 141.723 22.06C141.523 22.0467 141.343 22.0267 141.183 22V14.81C141.183 14.4633 141.116 14.2 140.983 14.02C140.856 13.84 140.629 13.75 140.303 13.75H140.053C139.993 13.4833 139.963 13.2167 139.963 12.95C139.963 12.8233 139.969 12.69 139.983 12.55C139.996 12.41 140.019 12.27 140.053 12.13C140.319 12.0967 140.573 12.0733 140.813 12.06C141.059 12.0467 141.266 12.04 141.433 12.04H141.723C142.263 12.04 142.686 12.21 142.993 12.55C143.299 12.8833 143.453 13.3433 143.453 13.93V22ZM140.573 9.41C140.573 9.25667 140.589 9.09333 140.623 8.92C140.656 8.74667 140.703 8.59333 140.763 8.46C140.896 8.38667 141.073 8.32667 141.293 8.28C141.519 8.22667 141.736 8.2 141.943 8.2C142.149 8.2 142.369 8.22667 142.603 8.28C142.836 8.32667 143.009 8.38667 143.123 8.46C143.183 8.59333 143.229 8.75 143.263 8.93C143.296 9.10333 143.313 9.26333 143.313 9.41C143.313 9.55667 143.296 9.72 143.263 9.9C143.229 10.0733 143.183 10.2233 143.123 10.35C143.016 10.4233 142.843 10.4867 142.603 10.54C142.369 10.5867 142.149 10.61 141.943 10.61C141.736 10.61 141.516 10.5867 141.283 10.54C141.056 10.4933 140.883 10.43 140.763 10.35C140.703 10.2233 140.656 10.0733 140.623 9.9C140.589 9.72 140.573 9.55667 140.573 9.41Z" fill="#000E18"/>
<defs>
<linearGradient id="paint0_linear_1_2" x1="16.0038" y1="4.99999" x2="16.0038" y2="27" gradientUnits="userSpaceOnUse">
<stop stop-color="#18B0FF"/>
<stop offset="1" stop-color="#1E6EFF"/>
</linearGradient>
<linearGradient id="paint1_linear_1_2" x1="25.0426" y1="19.0195" x2="25.0426" y2="29.632" gradientUnits="userSpaceOnUse">
<stop stop-color="#18B0FF"/>
<stop offset="1" stop-color="#1E6EFF"/>
</linearGradient>
<linearGradient id="paint2_linear_1_2" x1="16" y1="12" x2="16" y2="20" gradientUnits="userSpaceOnUse">
<stop stop-color="#18B0FF"/>
<stop offset="1" stop-color="#1E6EFF"/>
</linearGradient>
<clipPath id="clip0_1_2">
<rect width="8" height="8" fill="white" transform="translate(12 12)"/>
</clipPath>
</defs>
</svg>
